<svg width="36" height="37" viewBox="0 0 36 37" fill="none" xmlns="http://www.w3.org/2000/svg">
<path d="M13.4424 29.1102L13.9194 28.5314H13.9194L13.4424 29.1102ZM17.9998 8.07766L17.448 8.58561C17.59 8.73988 17.7901 8.82766 17.9998 8.82766C18.2095 8.82766 18.4096 8.73988 18.5516 8.58561L17.9998 8.07766ZM22.2432 30.3564L22.693 29.7562L22.2432 30.3564ZM24.7498 19.8401L24.2228 20.3737C24.5149 20.6622 24.9847 20.6622 25.2768 20.3737L24.7498 19.8401ZM27.2564 30.3564L26.8066 29.7562L27.2564 30.3564ZM13.9194 28.5314C9.39432 24.8015 3.74982 20.977 3.74982 13.7811H2.24982C2.24982 21.8391 8.6636 26.1431 12.9654 29.6889L13.9194 28.5314ZM3.74982 13.7811C3.74982 10.2299 5.66961 7.24962 8.29207 5.99624C10.8572 4.77027 14.2613 5.12372 17.448 8.58561L18.5516 7.56971C14.9886 3.6991 10.8927 3.09075 7.64524 4.64287C4.45514 6.16756 2.24982 9.70526 2.24982 13.7811H3.74982ZM12.9654 29.6889C13.737 30.3249 14.5417 30.9829 15.3516 31.4777C16.1604 31.9719 17.0508 32.3525 17.9998 32.3525V30.8525C17.4488 30.8525 16.8392 30.6288 16.1337 30.1978C15.4293 29.7674 14.7052 29.1791 13.9194 28.5314L12.9654 29.6889ZM33.7498 13.7811C33.7498 9.70526 31.5445 6.16756 28.3544 4.64287C25.1069 3.09075 21.011 3.6991 17.448 7.56971L18.5516 8.58561C21.7384 5.12372 25.1425 4.77027 27.7076 5.99624C30.33 7.24962 32.2498 10.2299 32.2498 13.7811H33.7498ZM17.2498 22.6918C17.2498 21.0871 18.2039 19.7258 19.5316 19.1489C20.821 18.5887 22.5619 18.7335 24.2228 20.3737L25.2768 19.3065C23.2253 17.2804 20.8413 16.9444 18.9338 17.7732C17.0646 18.5853 15.7498 20.483 15.7498 22.6918H17.2498ZM21.7935 30.9565C22.2151 31.2725 22.6757 31.6156 23.1442 31.8758C23.6133 32.1363 24.1563 32.3525 24.7498 32.3525V30.8525C24.5183 30.8525 24.2364 30.7666 23.8725 30.5645C23.5081 30.3621 23.128 30.0821 22.693 29.7562L21.7935 30.9565ZM27.7061 30.9565C28.8745 30.0811 30.3947 29.0596 31.5864 27.7841C32.8038 26.481 33.7498 24.8454 33.7498 22.6918H32.2498C32.2498 24.3517 31.5378 25.6389 30.4903 26.76C29.4172 27.9087 28.0657 28.8127 26.8066 29.7562L27.7061 30.9565ZM26.8066 29.7562C26.3717 30.0821 25.9915 30.3621 25.6271 30.5645C25.2633 30.7666 24.9813 30.8525 24.7498 30.8525V32.3525C25.3433 32.3525 25.8864 32.1363 26.3554 31.8758C26.8239 31.6156 27.2845 31.2725 27.7061 30.9565L26.8066 29.7562ZM33.7498 22.6918C33.7498 21.2403 33.1817 19.9233 32.2634 18.9612L31.1783 19.9969C31.8385 20.6885 32.2498 21.6377 32.2498 22.6918H33.7498ZM32.2634 18.9612C31.325 17.9781 30.0146 17.3599 28.5689 17.3526C27.1151 17.3453 25.5911 17.9552 24.2228 19.3065L25.2768 20.3737C26.4014 19.2631 27.5562 18.8475 28.5614 18.8526C29.5747 18.8577 30.5034 19.2899 31.1783 19.9969L32.2634 18.9612ZM32.3974 19.8028C33.2379 18.0462 33.7498 16.0605 33.7498 13.7811H32.2498C32.2498 15.8251 31.7931 17.5904 31.0443 19.1554L32.3974 19.8028ZM22.693 29.7562C22.4814 29.5976 22.264 29.4381 22.0457 29.2782L21.1594 30.4883C21.3778 30.6483 21.5892 30.8035 21.7935 30.9565L22.693 29.7562ZM22.0457 29.2782C19.643 27.5182 17.2498 25.7369 17.2498 22.6918H15.7498C15.7498 26.6204 18.9012 28.8342 21.1594 30.4883L22.0457 29.2782ZM21.1397 29.2931C19.9059 30.2607 18.9025 30.8525 17.9998 30.8525V32.3525C19.4798 32.3525 20.859 31.4196 22.0654 30.4734L21.1397 29.2931Z" fill="#702A66"/>
</svg>
