<svg width="27" height="27" viewBox="0 0 27 27" fill="none" xmlns="http://www.w3.org/2000/svg">
<path d="M19.6875 0.09375H7.3125C5.3986 0.0957973 3.56367 0.857 2.21033 2.21033C0.857 3.56367 0.0957973 5.3986 0.09375 7.3125V19.6875C0.0957973 21.6014 0.857 23.4363 2.21033 24.7897C3.56367 26.143 5.3986 26.9042 7.3125 26.9062H19.6875C21.6014 26.9042 23.4363 26.143 24.7897 24.7897C26.143 23.4363 26.9042 21.6014 26.9062 19.6875V7.3125C26.9042 5.3986 26.143 3.56367 24.7897 2.21033C23.4363 0.857 21.6014 0.0957973 19.6875 0.09375ZM13.5 19.6875C12.2762 19.6875 11.0799 19.3246 10.0624 18.6447C9.04488 17.9648 8.25181 16.9985 7.7835 15.8679C7.31518 14.7372 7.19265 13.4931 7.43139 12.2929C7.67014 11.0926 8.25944 9.99011 9.12478 9.12478C9.99011 8.25944 11.0926 7.67014 12.2929 7.43139C13.4931 7.19265 14.7372 7.31518 15.8679 7.7835C16.9985 8.25181 17.9648 9.04488 18.6447 10.0624C19.3246 11.0799 19.6875 12.2762 19.6875 13.5C19.6858 15.1405 19.0334 16.7133 17.8733 17.8733C16.7133 19.0334 15.1405 19.6858 13.5 19.6875ZM21.2344 7.3125C20.9284 7.3125 20.6294 7.22178 20.375 7.05181C20.1206 6.88183 19.9223 6.64024 19.8053 6.35759C19.6882 6.07493 19.6575 5.76391 19.7172 5.46384C19.7769 5.16378 19.9242 4.88815 20.1406 4.67182C20.3569 4.45548 20.6325 4.30816 20.9326 4.24847C21.2327 4.18879 21.5437 4.21942 21.8263 4.3365C22.109 4.45358 22.3506 4.65184 22.5206 4.90623C22.6905 5.16061 22.7812 5.45968 22.7812 5.76562C22.7812 6.17588 22.6183 6.56934 22.3282 6.85943C22.0381 7.14953 21.6446 7.3125 21.2344 7.3125ZM17.625 13.5C17.625 14.3158 17.3831 15.1134 16.9298 15.7917C16.4766 16.4701 15.8323 16.9988 15.0786 17.311C14.3248 17.6232 13.4954 17.7049 12.6953 17.5457C11.8951 17.3866 11.1601 16.9937 10.5832 16.4168C10.0063 15.8399 9.61342 15.1049 9.45426 14.3047C9.2951 13.5046 9.37679 12.6752 9.689 11.9214C10.0012 11.1677 10.5299 10.5234 11.2083 10.0702C11.8866 9.61693 12.6842 9.375 13.5 9.375C14.594 9.375 15.6432 9.8096 16.4168 10.5832C17.1904 11.3568 17.625 12.406 17.625 13.5Z" fill="#702A66"/>
</svg>
