<svg width="49" height="46" viewBox="0 0 49 46" fill="none" xmlns="http://www.w3.org/2000/svg">
<path d="M32 23C36.1421 23 39.5 19.6421 39.5 15.5C39.5 11.3579 36.1421 8 32 8C27.8579 8 24.5 11.3579 24.5 15.5C24.5 16.6998 24.7817 17.8337 25.2826 18.8394C25.4157 19.1066 25.46 19.4121 25.3828 19.7005L24.9361 21.37C24.7422 22.0947 25.4053 22.7578 26.13 22.5639L27.7995 22.1172C28.0879 22.04 28.3934 22.0843 28.6606 22.2174C29.6663 22.7183 30.8002 23 32 23Z" stroke="#FFF010" stroke-width="1.5"/>
<path d="M32 18.5L32 12.5M35 15.5L29 15.5" stroke="#FFF010" stroke-width="1.5" stroke-linecap="round"/>
<path d="M27.6511 29.0408L27.1073 28.5243L27.6511 29.0408ZM28.3342 28.3216L28.878 28.8381L28.3342 28.3216ZM31.9592 27.8185L31.5851 28.4685L31.9592 27.8185ZM34.825 29.468L34.4508 30.118L34.825 29.468ZM35.6325 34.6376L36.1763 35.1542L35.6325 34.6376ZM33.5017 36.881L32.9579 36.3645L33.5017 36.881ZM31.5144 37.9446L31.5881 38.691L31.5144 37.9446ZM16.723 31.2128L17.2668 30.6963L16.723 31.2128ZM9.50433 16.9489L8.75541 16.9891V16.9891L9.50433 16.9489ZM19.2163 19.2547L19.7601 19.7712L19.2163 19.2547ZM19.4514 15.0396L20.0638 14.6067V14.6067L19.4514 15.0396ZM17.5599 12.3644L16.9475 12.7974V12.7974L17.5599 12.3644ZM12.8922 11.913L13.436 12.4295L13.436 12.4295L12.8922 11.913ZM10.5378 14.3917L9.99398 13.8752H9.99398L10.5378 14.3917ZM21.5947 26.0838L22.1385 25.5673L21.5947 26.0838ZM28.1949 29.5573L28.878 28.8381L27.7904 27.805L27.1073 28.5243L28.1949 29.5573ZM31.5851 28.4685L34.4508 30.118L35.1991 28.818L32.3334 27.1685L31.5851 28.4685ZM35.0887 34.1211L32.9579 36.3645L34.0455 37.3975L36.1763 35.1542L35.0887 34.1211ZM31.4407 37.1983C29.191 37.4203 23.4544 37.2106 17.2668 30.6963L16.1792 31.7293C22.732 38.6281 28.9495 38.9515 31.5881 38.691L31.4407 37.1983ZM17.2668 30.6963C11.3884 24.5074 10.3794 19.2583 10.2533 16.9087L8.75541 16.9891C8.89974 19.6781 10.0438 25.2698 16.1792 31.7293L17.2668 30.6963ZM19.3298 20.2241L19.7601 19.7712L18.6725 18.7382L18.2423 19.1911L19.3298 20.2241ZM20.0638 14.6067L18.1723 11.9314L16.9475 12.7974L18.839 15.4726L20.0638 14.6067ZM12.3484 11.3964L9.99398 13.8752L11.0816 14.9082L13.436 12.4295L12.3484 11.3964ZM18.7861 19.7076C18.2423 19.1911 18.2416 19.1918 18.2409 19.1926C18.2406 19.1928 18.2399 19.1936 18.2394 19.1941C18.2385 19.1951 18.2375 19.1962 18.2365 19.1973C18.2344 19.1995 18.2323 19.2018 18.2301 19.2042C18.2256 19.2091 18.2208 19.2145 18.2156 19.2205C18.2053 19.2324 18.1936 19.2464 18.1808 19.2625C18.1552 19.2948 18.1252 19.3359 18.0932 19.3859C18.029 19.4863 17.9569 19.6223 17.895 19.7962C17.7696 20.1485 17.6949 20.632 17.7861 21.2545C17.9662 22.4835 18.7848 24.2146 21.0509 26.6004L22.1385 25.5673C19.9721 23.2865 19.3864 21.8295 19.2703 21.037C19.2134 20.6488 19.2676 20.4132 19.3082 20.2991C19.3293 20.2398 19.3494 20.2058 19.3567 20.1944C19.3604 20.1886 19.361 20.1884 19.357 20.1934C19.355 20.1959 19.3519 20.1997 19.3474 20.2048C19.3452 20.2074 19.3426 20.2103 19.3397 20.2135C19.3383 20.2151 19.3367 20.2168 19.3351 20.2186C19.3342 20.2195 19.3334 20.2204 19.3325 20.2213C19.3321 20.2218 19.3314 20.2225 19.3312 20.2227C19.3305 20.2234 19.3298 20.2241 18.7861 19.7076ZM21.0509 26.6004C23.3125 28.9814 24.9673 29.8581 26.1648 30.0526C26.7751 30.1517 27.2534 30.0707 27.6033 29.9327C27.7751 29.8649 27.9087 29.7863 28.0065 29.7169C28.0553 29.6823 28.0951 29.65 28.1263 29.6227C28.1419 29.609 28.1554 29.5965 28.1668 29.5855C28.1725 29.58 28.1777 29.5749 28.1824 29.5702C28.1847 29.5678 28.1869 29.5656 28.189 29.5634C28.19 29.5624 28.191 29.5613 28.192 29.5603C28.1925 29.5598 28.1932 29.559 28.1935 29.5588C28.1942 29.5581 28.1949 29.5573 27.6511 29.0408C27.1073 28.5243 27.108 28.5236 27.1086 28.5229C27.1089 28.5226 27.1095 28.5219 27.11 28.5215C27.1109 28.5205 27.1117 28.5197 27.1126 28.5188C27.1142 28.517 27.1159 28.5154 27.1174 28.5139C27.1205 28.5108 27.1233 28.508 27.1258 28.5056C27.1307 28.5008 27.1345 28.4974 27.1372 28.495C27.1424 28.4904 27.143 28.4904 27.1388 28.4934C27.1304 28.4993 27.1026 28.5177 27.0529 28.5373C26.9597 28.5741 26.755 28.6288 26.4053 28.572C25.6827 28.4547 24.3094 27.8529 22.1385 25.5673L21.0509 26.6004ZM18.1723 11.9314C16.7772 9.9583 14.0118 9.64516 12.3484 11.3964L13.436 12.4295C14.3961 11.4187 16.0537 11.5332 16.9475 12.7974L18.1723 11.9314ZM10.2533 16.9087C10.2142 16.1812 10.5334 15.4854 11.0816 14.9082L9.99398 13.8752C9.24132 14.6676 8.68875 15.7472 8.75541 16.9891L10.2533 16.9087ZM32.9579 36.3645C32.4983 36.8484 31.9822 37.1448 31.4407 37.1983L31.5881 38.691C32.5928 38.5918 33.4215 38.0544 34.0455 37.3975L32.9579 36.3645ZM19.7601 19.7712C21.0809 18.3806 21.1827 16.1893 20.0638 14.6067L18.839 15.4726C19.5693 16.5056 19.4713 17.8972 18.6725 18.7382L19.7601 19.7712ZM34.4508 30.118C35.8851 30.9436 36.181 32.9712 35.0887 34.1211L36.1763 35.1542C37.9607 33.2755 37.4455 30.1109 35.1991 28.818L34.4508 30.118ZM28.878 28.8381C29.5783 28.1008 30.6696 27.9415 31.5851 28.4685L32.3334 27.1685C30.8321 26.3044 28.979 26.5537 27.7904 27.805L28.878 28.8381Z" fill="#FFF010"/>
<path d="M48 45.5H48.5V45V13C48.5 6.09644 42.9036 0.5 36 0.5H13C6.09644 0.5 0.5 6.09644 0.5 13V33C0.5 39.9036 6.09644 45.5 13 45.5H48Z" stroke="#FFF010"/>
</svg>
