<svg width="36" height="37" viewBox="0 0 36 37" fill="none" xmlns="http://www.w3.org/2000/svg">
<path d="M4.50021 15.7275C4.50021 10.9311 4.50021 8.53296 5.06649 7.72615C5.63276 6.91935 7.8877 6.14747 12.3976 4.60373L13.2568 4.30961C15.6077 3.5049 16.7831 3.10254 18.0002 3.10254C19.2173 3.10254 20.3927 3.5049 22.7436 4.30962L23.6028 4.60373C28.1127 6.14747 30.3677 6.91935 30.9339 7.72615C31.5002 8.53296 31.5002 10.9311 31.5002 15.7275C31.5002 16.452 31.5002 17.2377 31.5002 18.0896C31.5002 26.5467 25.1418 30.6508 21.1524 32.3935C20.0702 32.8662 19.5291 33.1025 18.0002 33.1025C16.4713 33.1025 15.9302 32.8662 14.8481 32.3934C10.8587 30.6508 4.50021 26.5467 4.50021 18.0896C4.50021 17.2377 4.50021 16.452 4.50021 15.7275Z" stroke="#702A66" stroke-width="1.5"/>
<circle cx="18.0002" cy="13.6025" r="3" stroke="#702A66" stroke-width="1.5"/>
<path d="M24.0002 22.6025C24.0002 24.2594 24.0002 25.6025 18.0002 25.6025C12.0002 25.6025 12.0002 24.2594 12.0002 22.6025C12.0002 20.9457 14.6865 19.6025 18.0002 19.6025C21.3139 19.6025 24.0002 20.9457 24.0002 22.6025Z" stroke="#702A66" stroke-width="1.5"/>
</svg>
