<svg width="36" height="37" viewBox="0 0 36 37" fill="none" xmlns="http://www.w3.org/2000/svg">
<path d="M4.49989 15.7275C4.49989 10.9311 4.49989 8.53296 5.06617 7.72615C5.63244 6.91935 7.88738 6.14747 12.3973 4.60373L13.2565 4.30961C15.6074 3.5049 16.7828 3.10254 17.9999 3.10254C19.217 3.10254 20.3924 3.5049 22.7433 4.30962L23.6025 4.60373C28.1124 6.14747 30.3673 6.91935 30.9336 7.72615C31.4999 8.53296 31.4999 10.9311 31.4999 15.7275C31.4999 16.452 31.4999 17.2377 31.4999 18.0896C31.4999 26.5467 25.1414 30.6508 21.1521 32.3935C20.0699 32.8662 19.5288 33.1025 17.9999 33.1025C16.471 33.1025 15.9299 32.8662 14.8477 32.3934C10.8583 30.6508 4.49989 26.5467 4.49989 18.0896C4.49989 17.2377 4.49989 16.452 4.49989 15.7275Z" stroke="#702A66" stroke-width="1.5"/>
<path d="M14.2499 18.7025L16.3928 21.1025L21.7499 15.1025" stroke="#702A66" stroke-width="1.5" stroke-linecap="round" stroke-linejoin="round"/>
</svg>
