<svg width="36" height="37" viewBox="0 0 36 37" fill="none" xmlns="http://www.w3.org/2000/svg">
<path d="M4.49979 16.5224C4.49979 11.7261 4.49979 9.32788 5.06606 8.52107C5.63233 7.71427 7.88727 6.9424 12.3972 5.39865L13.2564 5.10454C15.6073 4.29982 16.7827 3.89746 17.9998 3.89746C19.2169 3.89746 20.3923 4.29982 22.7432 5.10454L23.6024 5.39865C28.1123 6.9424 30.3672 7.71427 30.9335 8.52107C31.4998 9.32788 31.4998 11.7261 31.4998 16.5224C31.4998 17.2469 31.4998 18.0326 31.4998 18.8845C31.4998 27.3416 25.1413 31.4457 21.1519 33.1884C20.0698 33.6611 19.5287 33.8975 17.9998 33.8975C16.4709 33.8975 15.9298 33.6611 14.8476 33.1884C10.8582 31.4457 4.49979 27.3416 4.49979 18.8845C4.49979 18.0326 4.49979 17.2469 4.49979 16.5224Z" stroke="#702A66" stroke-width="1.5"/>
<path d="M4.49979 17.3975L17.9998 12.8975L31.4998 17.3975" stroke="#702A66" stroke-width="1.5"/>
<path d="M17.9998 3.89746V33.1475" stroke="#702A66" stroke-width="1.5"/>
</svg>
